<?xml version="1.0" encoding="UTF-8"?>
<svg id="Capa_1" data-name="Capa 1" xmlns="http://www.w3.org/2000/svg" viewBox="0 0 905.49 303.3">
  <defs>
    <style>
      .cls-1 {
        fill: #e6a6a1;
        stroke-width: 11px;
      }

      .cls-1, .cls-2 {
        stroke: #9c6666;
        stroke-miterlimit: 10;
      }

      .cls-2 {
        fill: #9c6666;
      }
    </style>
  </defs>
  <path class="cls-2" d="M378.89,199.48c-2.49,18.54-18.86,42.05-35.97,49.94-5.21,2.4-21.37,5.36-23.52,7.46s-3.99,12.75-6.09,16.89c-14.51,28.58-48.03,33.25-76.69,26.03-7.96-2.01-24.6-12.49-28.55-12.6-4.82-.13-17.18,5.19-24.08,5.25-17.06.16-34.67-10.17-47.8-20-25.73,14.18-58.33,14.37-73.35-14.66-2.91-5.63-5.68-18.97-8.49-21.48-2.78-2.47-19.1-7.37-25.15-10.82-56.99-32.45-19.24-106.51,27.86-128.1C20.42.01,120.04-8.38,184.14,26.61,199.3,15.49,213.4,0,234.03.51c21.85.55,42.8,24.58,49.13,44,36.83-7.93,79.01,7.63,66.84,52.16-1.39,5.09-7.79,14.83-6.84,18.51,15,11.72,25.75,25.75,33.04,43.44,27.76.21,0,0,24.55.23,34.01.33,57.1-34.09,82.85-53.02V39.9c0-1.49,4.85-4.52,7.05-4.94,5.44-1.04,34.17-.78,39.02.83,5.74,1.9,7.46,8.86,7.71,14.32.1,2.26-4.44,13.13,1.14,10.75,12.28-7.95,44.38-41.72,56.5-43.63,1.69-.27,3.27-.66,4.94.05l159.51,130.38c4.68,2.97,22.36,11.12,26.84,11.12l115.71.07c3.97,0,3.97,11.99,0,11.99l-113.71-.07c-8.94,0-26.89-8.17-34.79-13.16l-153.94-125.87-8.02.14c-11.51,7.44-44.85,42.32-55.44,44.61-3.7.8-8.84,1.4-10.26-2.91l-.29-26.68h-31.97v64.94l-53.95,46.95h34.97c.35,0,5,4.64,5,5v117.88l233.78,1.01c4.22-4.05-6.38-94.82.48-107.4l6.2-2.13,4.29,3.64c.93,1.51.88,3.2,1.1,4.88,2.57,19.14,2.23,80.45-.05,100.04-.79,6.8-3.48,11.37-9.93,14.05l-234.91.93c-5.78.9-12.96-5.86-12.96-11.02v-114.89l-88.72-.26c-.86,9.16,1.19,20.09,0,28.97ZM272.99,48.61c-14.92-35.49-48.14-50.15-75.89-16.97l39.34,30.7c5.89,1.51,26.8-15.93,36.54-13.73ZM174.99,34.75C131.52,15.2,53.18.3,61.42,73.39c2.82,25.03,9.26,19.79,29.79,14.23,8.97-34.89,28.34-49.5,64.69-46.77,8.59.65,18.73,9.39,19.1-6.1ZM217.09,78.59c2.04,1.51,11.41-5.44,9.07-9.96-2.84-5.49-42.2-38.75-43.07-18.04,12.74,5.78,28.25,15.12,33.99,28ZM165.1,54.65c-27.29-7.57-56.33.52-59.93,31.93,14.98-1.75,29.97,5.45,44.67.19l15.26-32.13ZM297.32,92.25l34.66,16.09c25.02-36.37-6.3-59.21-42.99-53.7l8.33,37.61ZM203.06,78.58c-6.59-9.32-17.29-14.57-27.01-19.75l-12.95,23.75,39.96-4ZM278.82,58.78c-3.63-2.54-33.37,11.75-33.64,14.79-.99,11.06,32.36,11.91,39.79,15.02l-6.15-29.8ZM211.06,90.59h-30.97c-1.73,0-14.36,2.54-14.98,5.97l36.83,11.95,9.12-17.92ZM241.02,114.55l-.86-22.1-13.11-1.85c2.72,1.73,9.49,29.1,13.98,23.95ZM286.99,100.59l-33.97-6.01-2,23.97c11.54-1.48,21.33,5.04,31.95,8l4.02-25.97ZM121.14,98.6l-17.99-.03.02,15.98c2.22,2.5,16.55-13.23,17.97-15.95ZM91.16,100.57c-3.34.77-16.85.04-16.01,5.02,1.05,6.31,14.1,21.19,20,24.96l-3.98-29.98ZM145.11,102.59c-5.05-4.33-32.42,18.68-35.06,24.02-5.28,10.66,22.3,27.7,33.06,23.91-3.38-16.42-2.18-31.84,2-47.93ZM223.04,114.55l-4.99-11.94-4.91,8.98,9.89,2.95ZM205.06,124.53c.71-3.51-.87-4.02-3.42-5.54-2.87-1.71-44.85-16.21-46.52-14.43l-2.01,43.98c20.17.5,33.7-18.88,51.94-24.01ZM324.94,116.59l-27.96-12-6.01,29.94c7.08,7.84,35.52-15.88,33.97-17.94ZM86.76,170.11l2.09-28.12-26.6-33.15c-50.6,21.92-77.65,98.68-7.05,113.61-2.01-19.22,7.17-33.8,21.03-45.89,2.33-2.03,10.22-5.91,10.53-6.45ZM237.03,126.57c-2.92-.9-4.94-1.12-7.98-1.09-1.91.02-11.43,0-9.98,4.04l13.94,9.02,4.02-11.97ZM362.67,155.82c-.51-5.34-23.92-31.92-28.47-31.13l-29.24,19.88,8,19.95M274.98,142.51c5.41-8.29-20.26-12.38-24.79-13.64l-7.17,15.66c5.25-.26,29.94,1.07,31.95-2.02ZM208.09,135.09l-48.99,26.47c3.98,10.15,25.46,42.75,37.96,36.03,7.4-3.98,22.39-40.13,29.94-48.08l-18.91-14.42ZM125.14,168.49c-6.69-8.99-14.77-17.19-25.95-19.96v17.98c8.74-5.05,17.19.71,25.95,1.98ZM300.98,168.51c-2.51-33.86-23.15-13.59-29.98,5.97l29.98-5.97ZM268.99,154.53c-11.61,4.04-20.56-.35-31.97-1.14l-29.95,51.08c15.03-4.88,29.06-13.7,40.9-24.02,2.84-2.47,24.15-23,21.02-25.91ZM146.83,160.81l-11.69,1.68,13.95,8.02-2.26-9.7ZM366.9,170.51l-53.94,6.02c3.17,6.44,9.98,20.27,9.98,26.95v40.96c15.74-4.58,29.63-12.33,37.61-27.33,1.07-2.01,6.35-14.79,6.35-15.63v-30.97ZM157.1,224.44c-8.84-18.57-21.74-42.43-43.83-47.05-3.76-.79-10.67-2.47-13.26,1.05-2.3,3.13,13.21,46.66,18.05,50.23l39.03-4.23ZM167.34,220.22c3.43,2.17,18.75-4.12,17.73-8.71l-41.95-30.98c9.19,12.38,18.48,25.21,24.22,39.7ZM105.16,230.43l-16.97-47.92c-10.35,6.02-16.91,14.37-20.08,25.88-1.75,6.33-5.51,18.66,2.12,20.04,4.54.82,33.36,3.15,34.93,2ZM288.45,182.9c-7.48,1.54-20.02,11.34-24.31,17.71-8.77,13.03-12.61,35.36,9.52,21.51,9.62-6.02,40.33-44.48,14.79-39.22ZM247.01,226.46c-.09-6.11-.36-12.04.89-18.1,1.57-7.59,7.18-12.8,9.09-19.86-12.36,9.37-24.66,19.63-39.93,24.01-1.16,4.59.91,3.27,2.51,4.54,6.83,5.41,18.64,8.98,27.44,9.42ZM310.95,198.49c-4.67-1-3.21.58-4.47,2.57-6.3,9.87-8.43,17.26-18.44,25.45-5.91,4.83-12.52,6.31-17.03,11.91,13.41,4.98,25.45,7.4,39.96,6.03,2.19-15.91,2.21-30.05-.02-45.96ZM237.03,236.46c-24.15-4.58-41.65-28.7-59.78,2.69,6.49,6.62,23.34,33.71,32.49,32.85,8.03-.76,30.85-31.43,27.29-35.53ZM163.09,234.46l-37.94,6.97c3.51,3.24,9.62,15.15,14.63,14.71,2.99-.26,26.11-19.18,23.32-21.68ZM127.13,264.39l-15.3-21.63-42.63-2.31c5.34,28.66,33.6,36.32,57.93,23.94ZM306.95,256.44c-12.86.68-29.87-1.45-41.36-7.59-5.41-2.89-8.48-10.43-15.26-8.21-2.87.94-10.35,17.94-13.65,22.44-2.47,3.37-17.81,16.91-15.64,19.31,32.67,12.68,76.14,15.94,85.91-25.95ZM195.06,280.39l-25.33-31.78c-5.89-1.55-16.14,14.4-22.58,16.8,12.38,12.8,30.62,16.61,47.9,14.98Z"/>
  <path class="cls-1" d="M545.54,270.67v-62.94c0-42.54,70.55-61.47,94.78-18.85,1.28,2.25,7.12,15.75,7.12,16.85v64.94"/>
</svg>