<svg xmlns="http://www.w3.org/2000/svg" version="1.1" xmlns:xlink="http://www.w3.org/1999/xlink" width="1000" height="1000"><style>
    #light-icon {
      display: inline;
    }
    #dark-icon {
      display: none;
    }

    @media (prefers-color-scheme: dark) {
      #light-icon {
        display: none;
      }
      #dark-icon {
        display: inline;
      }
    }
  </style><g id="light-icon"><svg xmlns="http://www.w3.org/2000/svg" version="1.1" xmlns:xlink="http://www.w3.org/1999/xlink" width="1000" height="1000"><g><g transform="matrix(1.631601430836138,0,0,1.631601430836138,5.684341886080802e-14,280.9951244812364)"><svg xmlns="http://www.w3.org/2000/svg" version="1.1" xmlns:xlink="http://www.w3.org/1999/xlink" width="612.89478" height="268.45389"><svg id="Capa_1" data-name="Capa 1" viewBox="0 0 612.89478 268.4539" width="612.89478" height="268.45389" version="1.1" sodipodi:docname="logo-hogarterapeutico-simplificado-2.svg" inkscape:version="1.4.2 (ebf0e940, 2025-05-08)" xmlns:inkscape="http://www.inkscape.org/namespaces/inkscape" xmlns:sodipodi="http://sodipodi.sourceforge.net/DTD/sodipodi-0.dtd" xmlns="http://www.w3.org/2000/svg" xmlns:svg="http://www.w3.org/2000/svg">
  <sodipodi:namedview id="namedview2" pagecolor="#ffffff" bordercolor="#000000" borderopacity="0.25" inkscape:showpageshadow="2" inkscape:pageopacity="0.0" inkscape:pagecheckerboard="0" inkscape:deskcolor="#d1d1d1" inkscape:zoom="1.0755556" inkscape:cx="294.73138" inkscape:cy="258.47106" inkscape:window-width="1472" inkscape:window-height="919" inkscape:window-x="0" inkscape:window-y="37" inkscape:window-maximized="0" inkscape:current-layer="Capa_1"></sodipodi:namedview>
  <defs id="defs1">
    <style id="style1">
      .cls-1 {
        fill: #e6a6a1;
        stroke-width: 11px;
      }

      .cls-1, .cls-2 {
        stroke: #9c6666;
        stroke-miterlimit: 10;
      }

      .cls-2 {
        fill: #9c6666;
      }
    </style>
  </defs>
  <path class="cls-2" d="m 148.72903,145.87703 c -0.97543,7.26281 -7.38817,16.47256 -14.09079,19.56336 -2.04095,0.94017 -8.37143,2.09972 -9.21366,2.92236 -0.84224,0.82265 -1.56303,4.99466 -2.38569,6.61645 -5.68411,11.19585 -18.81514,13.02526 -30.04233,10.19692 -3.118227,-0.78739 -9.636737,-4.8928 -11.184097,-4.93589 -1.88817,-0.0509 -6.73005,2.03312 -9.43303,2.05662 -6.68304,0.0627 -13.58154,-3.98397 -18.72505,-7.83475 -10.079396,5.55484 -22.850037,5.62927 -28.733929,-5.74286 -1.139951,-2.20549 -2.225071,-7.43126 -3.325852,-8.41452 -1.089027,-0.96759 -7.482178,-2.8871 -9.852191,-4.2386 C -10.582697,143.35425 4.205385,114.34218 22.656213,105.88457 8.302957,67.737194 47.327826,64.450518 72.438193,78.157407 c 5.93873,-4.356119 11.46223,-10.42413 19.54377,-10.224344 8.559457,0.215455 16.766357,9.628903 19.246057,17.236441 14.42768,-3.106476 30.95116,2.988959 26.18372,20.433016 -0.54452,1.99395 -3.05163,5.80946 -2.67949,7.25106 5.87607,4.59116 10.08724,10.08724 12.943,17.01707 10.87463,0.0823 -10.32649,-1.37933 -0.7091,-1.28923 13.32298,0.12928 29.27702,-27.24637 54.43425,-45.740587 l 0.38252,-64.500484 c 0.009,-1.455674 3.28018,-1.761953 5.42954,-2.172285 5.31477,-1.016058 28.04636,-1.483264 32.78471,0.08967 5.60786,1.856261 4.05196,5.747737 4.2962,11.082047 0.0977,2.207974 -2.68816,21.977377 4.63857,19.940654 12.86277,-5.170596 48.4069,-44.5681944 60.24789,-46.43422536 1.6511,-0.263785 3.19473,-0.644807 4.82628,0.04885 L 465.87619,123.26561 c 4.57227,2.90163 26.80493,13.34385 31.1818,13.34385 l 112.14135,-0.44668 c 3.87861,0 4.44835,5.51758 0.47835,5.51758 l -106.59151,-0.07 c -8.94,0 -27.60185,-4.61076 -35.50185,-9.60076 l -153.94,-125.870007 -8.02,0.14 c -11.51,7.44 -44.85,42.32 -55.44,44.61 -3.7,0.8 -8.84,1.4 -10.26,-2.91 l -0.29,-26.68 h -31.97 v 64.94 l -53.95,46.949997 h 35.07674 c 0.35,0 2.42376,0.1639 2.42376,0.1639 l -0.10289,127.47272 236.81776,-0.48902 c 4.22,-4.05 -6.84537,-98.0776 0.0146,-110.6576 l 2.75062,-1.62274 1.75368,1.10369 c 0.52419,3.4376 0.81802,4.59744 1.03295,6.23877 -1.3395,19.18068 -1.14191,78.9242 2.16539,98.30387 -0.77181,6.64347 -2.46915,10.64289 -8.77067,13.2612 l -229.50231,0.90859 c -5.64694,0.87928 -12.66166,-5.7251 -12.66166,-10.76632 V 138.7661 l -35.17076,0.67674 c -0.3369,3.58831 -0.3425,2.95948 -0.80866,6.43811 z M 107.24405,86.775629 C 101.39933,72.87287 88.385813,67.130001 77.515103,80.127846 L 92.92605,92.154174 c 2.30733,0.59153 10.49856,-6.240367 14.31408,-5.378545 z M 68.853793,81.346148 c -17.02882,-7.658464 -47.717517,-13.49535 -44.489607,15.136726 1.104705,9.805186 3.627491,7.752486 11.66986,5.574426 3.513879,-13.667716 11.101829,-19.390997 25.341487,-18.321555 3.36502,0.25463 7.33724,3.678415 7.48218,-2.389597 z m 16.49214,17.173766 c 0.79915,0.59152 4.46972,-2.13105 3.55305,-3.90171 -1.11252,-2.15063 -16.5313,-15.179816 -16.87211,-7.066933 4.99073,2.264241 11.06657,5.923063 13.31514,10.968643 z m -20.36642,-9.378196 c -10.69051,-2.965451 -22.066566,0.203705 -23.476816,12.508172 5.868222,-0.68554 11.740366,2.13497 17.498906,0.0744 l 5.97791,-12.586514 z m 51.795507,14.729322 13.57761,6.30305 C 140.1539,95.926614 127.88468,86.979334 113.51184,89.137802 Z M 79.849863,98.515994 c -2.58155,-3.65099 -6.77314,-5.70761 -10.58083,-7.736812 l -5.073,9.303758 z m 29.678007,-7.756397 c -1.422,-0.995018 -13.07227,4.602917 -13.17804,5.793797 -0.38782,4.332606 12.67662,4.665586 15.58723,5.883886 L 109.52787,90.763512 Z M 82.983753,103.22076 h -12.1321 c -0.67771,0 -5.62534,0.99501 -5.86822,2.33867 l 14.42768,4.68126 z m 11.736457,9.38602 -0.3369,-8.65739 -5.135677,-0.72472 c 1.06553,0.67771 3.717587,11.39956 5.476487,9.38211 z m 18.00816,-5.46865 -13.30732,-2.35434 -0.78347,9.38994 c 4.52064,-0.57977 8.35575,1.97436 12.516,3.1339 l 1.57479,-10.17341 z m -64.969633,-0.77956 -7.047352,-0.0118 0.0081,6.25996 c 0.869652,0.97935 6.483253,-5.18268 7.039513,-6.24821 z m -11.744284,0.77172 c -1.308402,0.30164 -6.600772,0.0156 -6.27171,1.96653 0.411326,2.47186 5.523491,8.30091 7.834741,9.77776 l -1.559108,-11.74429 z m 21.13423,0.79131 c -1.97827,-1.69621 -12.700121,7.31766 -13.734308,9.40954 -2.068374,4.17592 8.735738,10.85112 12.950838,9.36643 -1.32407,-6.43232 -0.85399,-12.47291 0.78347,-18.77597 z m 30.52809,4.68518 -1.95477,-4.67734 -1.92343,3.5178 3.87428,1.15563 z m -7.04344,3.90954 c 0.27813,-1.375 -0.34081,-1.57478 -1.33974,-2.17023 -1.12429,-0.66987 -17.56942,-6.35005 -18.22362,-5.65277 l -0.78739,17.22862 c 7.90134,0.19586 13.20155,-7.396 20.34683,-9.40562 z m 46.961467,-3.11039 -10.95297,-4.70085 -2.35435,11.72861 c 2.7735,3.07122 13.91451,-6.22078 13.30732,-7.02776 z m -93.30399,20.96578 0.818736,-11.01565 -10.420213,-12.98609 c -19.821908,8.58688 -30.41841,38.65663 -2.761753,44.50527 -0.787389,-7.5292 2.808762,-13.24072 8.238235,-17.97682 0.912754,-0.79523 4.003561,-2.31518 4.124995,-2.52671 z m 58.86637,-17.05624 c -1.14388,-0.35256 -1.935187,-0.43875 -3.126067,-0.427 -0.74822,0.008 -4.47755,0 -3.90954,1.58262 l 5.46082,3.53347 z m 49.21787,11.45831 C 142.17526,126.6819 133.0047,116.26953 131.22229,116.579 l -11.4544,7.78774 3.1339,7.81516 m -14.87818,-8.62214 c 2.11929,-3.2475 -7.9366,-4.84971 -9.71118,-5.3433 l -2.80875,6.13461 c 2.05662,-0.10185 11.72861,0.41916 12.51601,-0.79131 z m -26.203317,-2.90669 -19.1912,10.36929 c 1.55911,3.97612 9.97363,16.74676 14.87034,14.11429 2.89886,-1.55911 8.77101,-15.72042 11.72862,-18.83473 z m -32.4946,13.08402 c -2.620729,-3.52172 -5.785961,-6.73396 -10.165585,-7.81907 v 7.04344 c 3.423785,-1.97828 6.733959,0.27813 10.165585,0.77563 z m 68.883077,0.008 c -0.98326,-13.26423 -9.06871,-5.32371 -11.74428,2.33867 z M 105.6771,128.2686 c -4.54807,1.58261 -8.05412,-0.13711 -12.52384,-0.44658 l -11.732537,20.00994 c 5.88782,-1.91168 11.383887,-5.3668 16.022057,-9.40953 1.11254,-0.96759 9.46045,-9.00996 8.23432,-10.14992 z m -47.854627,2.46011 -4.57941,0.65812 5.46474,3.14173 z m 86.209627,3.79985 -21.13031,2.35826 c -2.7945,0.31188 3.90954,7.94051 3.90954,10.55732 v 16.04556 c 6.16594,-1.79416 11.60717,-4.83012 14.73324,-10.70618 0.41916,-0.78739 2.48753,-5.7938 2.48753,-6.12286 z m -82.186487,21.1264 c -3.46296,-7.27457 -8.51637,-16.62142 -17.169845,-18.43125 -1.472929,-0.30947 -4.179835,-0.96759 -5.194437,0.41133 -0.900999,1.22614 5.174852,18.27846 7.070861,19.67696 l 15.289501,-1.65704 z m 4.01139,-1.65314 c 1.34366,0.85007 7.34507,-1.61395 6.9455,-3.41203 l -16.43338,-12.13602 c 3.60007,4.84971 7.23931,9.8757 9.48788,15.55197 z m -24.358222,3.99964 -6.647788,-18.77205 c -4.054477,2.35826 -6.624272,5.62926 -7.86608,10.13816 -0.68554,2.4797 -2.158477,7.30982 0.830482,7.85042 1.778483,0.32122 13.068356,1.23397 13.683386,0.78347 z M 113.30031,139.3823 c -2.9302,0.60327 -7.84258,4.44229 -9.52314,6.93766 -3.43553,5.10434 -4.93981,13.85183 3.72934,8.42627 3.76852,-2.35825 15.79877,-17.42447 5.7938,-15.36393 z m -16.2336,17.06408 c -0.0353,-2.39352 -0.14103,-4.71652 0.34865,-7.09045 0.61503,-2.97329 2.81268,-5.01424 3.56089,-7.77991 -4.84187,3.67059 -9.660237,7.68981 -15.642067,9.40562 -0.45442,1.79807 0.35648,1.28098 0.98326,1.77848 2.67556,2.1193 7.301987,3.51781 10.749267,3.69017 z m 25.04768,-10.9569 c -1.82941,-0.39174 -1.25747,0.22721 -1.75106,1.00677 -2.46795,3.86645 -3.30235,6.76138 -7.22364,9.96971 -2.31516,1.8921 -4.90455,2.47186 -6.67128,4.6656 5.2532,1.95084 9.96971,2.89885 15.65382,2.36217 0.8579,-6.23254 0.86574,-11.77171 -0.008,-18.00425 z m -28.95721,14.87426 c -9.460457,-1.79415 -16.315857,-11.24285 -23.418057,1.05378 2.54238,2.5933 9.14315,13.20546 12.72754,12.86857 3.14565,-0.29772 12.085097,-12.31231 10.690517,-13.91842 z m -28.965057,-0.78347 -14.86252,2.73041 c 1.375,1.26923 3.76852,5.93482 5.73112,5.76245 1.17129,-0.10184 10.22826,-7.51351 9.13531,-8.49286 z m -14.08687,11.7247 -5.993584,-8.47328 -16.699769,-0.90491 c 2.091883,11.22719 13.162382,14.22789 22.693353,9.37819 z m 70.442197,-3.11431 c -5.03774,0.26638 -11.7012,-0.56802 -16.20226,-2.97329 -2.1193,-1.13212 -3.32194,-4.08581 -5.97791,-3.21616 -1.12429,0.36823 -4.05448,7.02776 -5.34722,8.79058 -0.96759,1.32016 -6.976837,6.62428 -6.126757,7.56445 12.798047,4.96723 29.826877,6.2443 33.654147,-10.16558 z m -43.831487,9.3821 -9.92271,-12.44941 c -2.30733,-0.60719 -6.32264,5.64102 -8.84542,6.58119 4.8497,5.01424 11.99499,6.50676 18.76422,5.86822 z" id="path1" sodipodi:nodetypes="ccscccccccccccccccccsccccccccccccccscccccsccccccccccscccccccccccccccccccccccccccccccccccccccsccccccccccccccccccccccccccccccccccccccccccccccccccccccccccccccccccccccccccccccccccccccsccsccccccccccccccccccccccccccccccccccccccccccccccccccccccccccccc"></path>
  <path class="cls-1" d="m 259.60433,245.06959 v -62.94 c 0,-42.54 70.55,-61.47 94.78,-18.85 1.28,2.25 7.12,15.75 7.12,16.85 v 37.01033 27.92967" id="path2" sodipodi:nodetypes="cscscc" style="stroke-width:5.4;stroke-dasharray:none"></path>
</svg></svg></g></g></svg></g><g id="dark-icon"><svg xmlns="http://www.w3.org/2000/svg" version="1.1" xmlns:xlink="http://www.w3.org/1999/xlink" width="1000" height="1000"><g><g transform="matrix(1.631601430836138,0,0,1.631601430836138,5.684341886080802e-14,280.9951244812364)"><svg xmlns="http://www.w3.org/2000/svg" version="1.1" xmlns:xlink="http://www.w3.org/1999/xlink" width="612.89478" height="268.45389"><svg id="Capa_1" data-name="Capa 1" viewBox="0 0 612.89478 268.4539" width="612.89478" height="268.45389" version="1.1" sodipodi:docname="logo-hogarterapeutico-simplificado-darker.svg" inkscape:version="1.4.2 (ebf0e940, 2025-05-08)" xmlns:inkscape="http://www.inkscape.org/namespaces/inkscape" xmlns:sodipodi="http://sodipodi.sourceforge.net/DTD/sodipodi-0.dtd" xmlns="http://www.w3.org/2000/svg" xmlns:svg="http://www.w3.org/2000/svg">
  <sodipodi:namedview id="namedview2" pagecolor="#ffffff" bordercolor="#000000" borderopacity="0.25" inkscape:showpageshadow="2" inkscape:pageopacity="0.0" inkscape:pagecheckerboard="0" inkscape:deskcolor="#d1d1d1" inkscape:zoom="1.0755556" inkscape:cx="294.73139" inkscape:cy="258.47106" inkscape:window-width="1472" inkscape:window-height="805" inkscape:window-x="0" inkscape:window-y="38" inkscape:window-maximized="0" inkscape:current-layer="Capa_1"></sodipodi:namedview>
  <defs id="defs1">
    <style id="style1">
      .cls-1 {
        fill: #e6a6a1;
        stroke-width: 11px;
      }

      .cls-1, .cls-2 {
        stroke: #9c6666;
        stroke-miterlimit: 10;
      }

      .cls-2 {
        fill: #9c6666;
      }
    </style>
  </defs>
  <path class="cls-2" d="m 148.72903,145.87703 c -0.97543,7.26281 -7.38817,16.47256 -14.09079,19.56336 -2.04095,0.94017 -8.37143,2.09972 -9.21366,2.92236 -0.84224,0.82265 -1.56303,4.99466 -2.38569,6.61645 -5.68411,11.19585 -18.81514,13.02526 -30.04233,10.19692 -3.118227,-0.78739 -9.636737,-4.8928 -11.184097,-4.93589 -1.88817,-0.0509 -6.73005,2.03312 -9.43303,2.05662 -6.68304,0.0627 -13.58154,-3.98397 -18.72505,-7.83475 -10.079396,5.55484 -22.850037,5.62927 -28.733929,-5.74286 -1.139951,-2.20549 -2.225071,-7.43126 -3.325852,-8.41452 -1.089027,-0.96759 -7.482178,-2.8871 -9.852191,-4.2386 C -10.582697,143.35425 4.205385,114.34218 22.656213,105.88457 8.302957,67.737194 47.327826,64.450518 72.438193,78.157407 c 5.93873,-4.356119 11.46223,-10.42413 19.54377,-10.224344 8.559457,0.215455 16.766357,9.628903 19.246057,17.236441 14.42768,-3.106476 30.95116,2.988959 26.18372,20.433016 -0.54452,1.99395 -3.05163,5.80946 -2.67949,7.25106 5.87607,4.59116 10.08724,10.08724 12.943,17.01707 10.87463,0.0823 -10.32649,-1.37933 -0.7091,-1.28923 13.32298,0.12928 29.27702,-27.24637 54.43425,-45.740587 l 0.38252,-64.500484 c 0.009,-1.455674 3.28018,-1.761953 5.42954,-2.172285 5.31477,-1.016058 28.04636,-1.483264 32.78471,0.08967 5.60786,1.856261 4.05196,5.747737 4.2962,11.082047 0.0977,2.207974 -2.68816,21.977377 4.63857,19.940654 12.86277,-5.170596 48.4069,-44.5681944 60.24789,-46.43422536 1.6511,-0.263785 3.19473,-0.644807 4.82628,0.04885 L 465.87619,123.26561 c 4.57227,2.90163 26.80493,13.34385 31.1818,13.34385 l 112.14135,-0.44668 c 3.87861,0 4.44835,5.51758 0.47835,5.51758 l -106.59151,-0.07 c -8.94,0 -27.60185,-4.61076 -35.50185,-9.60076 l -153.94,-125.870007 -8.02,0.14 c -11.51,7.44 -44.85,42.32 -55.44,44.61 -3.7,0.8 -8.84,1.4 -10.26,-2.91 l -0.29,-26.68 h -31.97 v 64.94 l -53.95,46.949997 h 35.07674 c 0.35,0 2.42376,0.1639 2.42376,0.1639 l -0.10289,127.47272 236.81776,-0.48902 c 4.22,-4.05 -6.84537,-98.0776 0.0146,-110.6576 l 2.75062,-1.62274 1.75368,1.10369 c 0.52419,3.4376 0.81802,4.59744 1.03295,6.23877 -1.3395,19.18068 -1.14191,78.9242 2.16539,98.30387 -0.77181,6.64347 -2.46915,10.64289 -8.77067,13.2612 l -229.50231,0.90859 c -5.64694,0.87928 -12.66166,-5.7251 -12.66166,-10.76632 V 138.7661 l -35.17076,0.67674 c -0.3369,3.58831 -0.3425,2.95948 -0.80866,6.43811 z M 107.24405,86.775629 C 101.39933,72.87287 88.385813,67.130001 77.515103,80.127846 L 92.92605,92.154174 c 2.30733,0.59153 10.49856,-6.240367 14.31408,-5.378545 z M 68.853793,81.346148 c -17.02882,-7.658464 -47.717517,-13.49535 -44.489607,15.136726 1.104705,9.805186 3.627491,7.752486 11.66986,5.574426 3.513879,-13.667716 11.101829,-19.390997 25.341487,-18.321555 3.36502,0.25463 7.33724,3.678415 7.48218,-2.389597 z m 16.49214,17.173766 c 0.79915,0.59152 4.46972,-2.13105 3.55305,-3.90171 -1.11252,-2.15063 -16.5313,-15.179816 -16.87211,-7.066933 4.99073,2.264241 11.06657,5.923063 13.31514,10.968643 z m -20.36642,-9.378196 c -10.69051,-2.965451 -22.066566,0.203705 -23.476816,12.508172 5.868222,-0.68554 11.740366,2.13497 17.498906,0.0744 l 5.97791,-12.586514 z m 51.795507,14.729322 13.57761,6.30305 C 140.1539,95.926614 127.88468,86.979334 113.51184,89.137802 Z M 79.849863,98.515994 c -2.58155,-3.65099 -6.77314,-5.70761 -10.58083,-7.736812 l -5.073,9.303758 z m 29.678007,-7.756397 c -1.422,-0.995018 -13.07227,4.602917 -13.17804,5.793797 -0.38782,4.332606 12.67662,4.665586 15.58723,5.883886 L 109.52787,90.763512 Z M 82.983753,103.22076 h -12.1321 c -0.67771,0 -5.62534,0.99501 -5.86822,2.33867 l 14.42768,4.68126 z m 11.736457,9.38602 -0.3369,-8.65739 -5.135677,-0.72472 c 1.06553,0.67771 3.717587,11.39956 5.476487,9.38211 z m 18.00816,-5.46865 -13.30732,-2.35434 -0.78347,9.38994 c 4.52064,-0.57977 8.35575,1.97436 12.516,3.1339 l 1.57479,-10.17341 z m -64.969633,-0.77956 -7.047352,-0.0118 0.0081,6.25996 c 0.869652,0.97935 6.483253,-5.18268 7.039513,-6.24821 z m -11.744284,0.77172 c -1.308402,0.30164 -6.600772,0.0156 -6.27171,1.96653 0.411326,2.47186 5.523491,8.30091 7.834741,9.77776 l -1.559108,-11.74429 z m 21.13423,0.79131 c -1.97827,-1.69621 -12.700121,7.31766 -13.734308,9.40954 -2.068374,4.17592 8.735738,10.85112 12.950838,9.36643 -1.32407,-6.43232 -0.85399,-12.47291 0.78347,-18.77597 z m 30.52809,4.68518 -1.95477,-4.67734 -1.92343,3.5178 3.87428,1.15563 z m -7.04344,3.90954 c 0.27813,-1.375 -0.34081,-1.57478 -1.33974,-2.17023 -1.12429,-0.66987 -17.56942,-6.35005 -18.22362,-5.65277 l -0.78739,17.22862 c 7.90134,0.19586 13.20155,-7.396 20.34683,-9.40562 z m 46.961467,-3.11039 -10.95297,-4.70085 -2.35435,11.72861 c 2.7735,3.07122 13.91451,-6.22078 13.30732,-7.02776 z m -93.30399,20.96578 0.818736,-11.01565 -10.420213,-12.98609 c -19.821908,8.58688 -30.41841,38.65663 -2.761753,44.50527 -0.787389,-7.5292 2.808762,-13.24072 8.238235,-17.97682 0.912754,-0.79523 4.003561,-2.31518 4.124995,-2.52671 z m 58.86637,-17.05624 c -1.14388,-0.35256 -1.935187,-0.43875 -3.126067,-0.427 -0.74822,0.008 -4.47755,0 -3.90954,1.58262 l 5.46082,3.53347 z m 49.21787,11.45831 C 142.17526,126.6819 133.0047,116.26953 131.22229,116.579 l -11.4544,7.78774 3.1339,7.81516 m -14.87818,-8.62214 c 2.11929,-3.2475 -7.9366,-4.84971 -9.71118,-5.3433 l -2.80875,6.13461 c 2.05662,-0.10185 11.72861,0.41916 12.51601,-0.79131 z m -26.203317,-2.90669 -19.1912,10.36929 c 1.55911,3.97612 9.97363,16.74676 14.87034,14.11429 2.89886,-1.55911 8.77101,-15.72042 11.72862,-18.83473 z m -32.4946,13.08402 c -2.620729,-3.52172 -5.785961,-6.73396 -10.165585,-7.81907 v 7.04344 c 3.423785,-1.97828 6.733959,0.27813 10.165585,0.77563 z m 68.883077,0.008 c -0.98326,-13.26423 -9.06871,-5.32371 -11.74428,2.33867 z M 105.6771,128.2686 c -4.54807,1.58261 -8.05412,-0.13711 -12.52384,-0.44658 l -11.732537,20.00994 c 5.88782,-1.91168 11.383887,-5.3668 16.022057,-9.40953 1.11254,-0.96759 9.46045,-9.00996 8.23432,-10.14992 z m -47.854627,2.46011 -4.57941,0.65812 5.46474,3.14173 z m 86.209627,3.79985 -21.13031,2.35826 c -2.7945,0.31188 3.90954,7.94051 3.90954,10.55732 v 16.04556 c 6.16594,-1.79416 11.60717,-4.83012 14.73324,-10.70618 0.41916,-0.78739 2.48753,-5.7938 2.48753,-6.12286 z m -82.186487,21.1264 c -3.46296,-7.27457 -8.51637,-16.62142 -17.169845,-18.43125 -1.472929,-0.30947 -4.179835,-0.96759 -5.194437,0.41133 -0.900999,1.22614 5.174852,18.27846 7.070861,19.67696 l 15.289501,-1.65704 z m 4.01139,-1.65314 c 1.34366,0.85007 7.34507,-1.61395 6.9455,-3.41203 l -16.43338,-12.13602 c 3.60007,4.84971 7.23931,9.8757 9.48788,15.55197 z m -24.358222,3.99964 -6.647788,-18.77205 c -4.054477,2.35826 -6.624272,5.62926 -7.86608,10.13816 -0.68554,2.4797 -2.158477,7.30982 0.830482,7.85042 1.778483,0.32122 13.068356,1.23397 13.683386,0.78347 z M 113.30031,139.3823 c -2.9302,0.60327 -7.84258,4.44229 -9.52314,6.93766 -3.43553,5.10434 -4.93981,13.85183 3.72934,8.42627 3.76852,-2.35825 15.79877,-17.42447 5.7938,-15.36393 z m -16.2336,17.06408 c -0.0353,-2.39352 -0.14103,-4.71652 0.34865,-7.09045 0.61503,-2.97329 2.81268,-5.01424 3.56089,-7.77991 -4.84187,3.67059 -9.660237,7.68981 -15.642067,9.40562 -0.45442,1.79807 0.35648,1.28098 0.98326,1.77848 2.67556,2.1193 7.301987,3.51781 10.749267,3.69017 z m 25.04768,-10.9569 c -1.82941,-0.39174 -1.25747,0.22721 -1.75106,1.00677 -2.46795,3.86645 -3.30235,6.76138 -7.22364,9.96971 -2.31516,1.8921 -4.90455,2.47186 -6.67128,4.6656 5.2532,1.95084 9.96971,2.89885 15.65382,2.36217 0.8579,-6.23254 0.86574,-11.77171 -0.008,-18.00425 z m -28.95721,14.87426 c -9.460457,-1.79415 -16.315857,-11.24285 -23.418057,1.05378 2.54238,2.5933 9.14315,13.20546 12.72754,12.86857 3.14565,-0.29772 12.085097,-12.31231 10.690517,-13.91842 z m -28.965057,-0.78347 -14.86252,2.73041 c 1.375,1.26923 3.76852,5.93482 5.73112,5.76245 1.17129,-0.10184 10.22826,-7.51351 9.13531,-8.49286 z m -14.08687,11.7247 -5.993584,-8.47328 -16.699769,-0.90491 c 2.091883,11.22719 13.162382,14.22789 22.693353,9.37819 z m 70.442197,-3.11431 c -5.03774,0.26638 -11.7012,-0.56802 -16.20226,-2.97329 -2.1193,-1.13212 -3.32194,-4.08581 -5.97791,-3.21616 -1.12429,0.36823 -4.05448,7.02776 -5.34722,8.79058 -0.96759,1.32016 -6.976837,6.62428 -6.126757,7.56445 12.798047,4.96723 29.826877,6.2443 33.654147,-10.16558 z m -43.831487,9.3821 -9.92271,-12.44941 c -2.30733,-0.60719 -6.32264,5.64102 -8.84542,6.58119 4.8497,5.01424 11.99499,6.50676 18.76422,5.86822 z" id="path1" sodipodi:nodetypes="ccscccccccccccccccccsccccccccccccccscccccsccccccccccscccccccccccccccccccccccccccccccccccccccsccccccccccccccccccccccccccccccccccccccccccccccccccccccccccccccccccccccccccccccccccccccsccsccccccccccccccccccccccccccccccccccccccccccccccccccccccccccccc" style="fill:#e6a6a1;fill-opacity:1;stroke:#e6a6a1;stroke-opacity:1"></path>
  <path class="cls-1" d="m 259.60433,245.06959 v -62.94 c 0,-42.54 70.55,-61.47 94.78,-18.85 1.28,2.25 7.12,15.75 7.12,16.85 v 37.01033 27.92967" id="path2" sodipodi:nodetypes="cscscc" style="stroke-width:5.4;stroke-dasharray:none;fill:#f6eeee;fill-opacity:1;stroke:#e6a6a1;stroke-opacity:1"></path>
</svg></svg></g></g></svg></g></svg>